<svg width="45" height="49" viewBox="0 0 45 49" fill="none" xmlns="http://www.w3.org/2000/svg">
<path d="M37.9622 15.7246C39.1892 14.1183 37.8638 10.8956 35.0017 8.52659C32.1396 6.15757 28.8247 5.5393 27.5977 7.14565C26.3707 8.752 27.6962 11.9747 30.5582 14.3437C33.4203 16.7127 36.7352 17.331 37.9622 15.7246Z" stroke="currentColor" stroke-miterlimit="10"/>
<path d="M40.5147 20.9966C42.9612 17.9497 40.9618 12.0145 36.0489 7.73991C31.136 3.46533 25.1701 2.47009 22.7236 5.51696C20.2772 8.56383 22.2766 14.499 27.1895 18.7736C32.1024 23.0482 38.0683 24.0434 40.5147 20.9966Z" stroke="currentColor" stroke-miterlimit="10"/>
<path d="M43.7532 20.783C43.9728 23.0284 43.5114 25.0553 42.2865 26.5821C38.7836 30.9472 30.3461 29.6158 23.4389 23.608C16.5349 17.6002 13.7764 9.19458 17.2825 4.82947C18.1575 3.73985 19.3442 3.00461 20.7345 2.60718" stroke="currentColor" stroke-miterlimit="10"/>
<path d="M43.8931 29.0455C43.6926 30.4696 43.1804 31.748 42.3341 32.8012C38.2967 37.832 28.1666 35.9409 19.7067 28.5851C11.2501 21.226 7.66448 11.1843 11.7019 6.15349C12.5609 5.08374 13.6936 4.32863 15.0266 3.87158" stroke="currentColor" stroke-miterlimit="10"/>
<path d="M35.4624 43.3674C30.8491 47.0238 21.1294 44.51 12.7459 37.2205C4.45158 30.0005 0.347348 20.6112 2.82261 15.2062" stroke="currentColor" stroke-miterlimit="10"/>
<path d="M29.7441 46.7009C24.8094 48.4993 17.0623 46.1346 10.3778 40.3188C3.68377 34.4965 0.0694962 26.9685 0.906251 21.59" stroke="currentColor" stroke-miterlimit="10"/>
<path d="M42.4885 34.0868C42.1353 34.9876 41.6581 35.8255 41.0504 36.584C36.2049 42.6216 24.9548 41.1478 15.9287 33.2952C6.90255 25.4394 3.51099 14.1789 8.35971 8.14123C8.73196 7.67757 9.14238 7.25695 9.5878 6.87939" stroke="currentColor" stroke-miterlimit="10"/>
<path d="M22.3383 48C34.3993 48 44.1767 37.8221 44.1767 25.267C44.1767 12.712 34.3993 2.53406 22.3383 2.53406C10.2774 2.53406 0.5 12.712 0.5 25.267C0.5 37.8221 10.2774 48 22.3383 48Z" stroke="currentColor" stroke-miterlimit="10"/>
<path d="M13.9436 46.2617C20.3386 45.3708 31.6173 26.9963 33.1762 11.0063C29.7847 17.0539 19.5718 33.7592 10.3262 44.258" stroke="currentColor" stroke-miterlimit="10"/>
<path d="M25.7754 47.7219C33.1789 46.2613 43.2645 29.152 33.1789 11.0027C35.3551 18.7228 33.7134 45.8474 17.5605 47.4503" stroke="currentColor" stroke-miterlimit="10"/>
<path d="M42.1246 34.8982C44.3326 30.1754 41.6601 15.8811 33.1748 11.0027C43.9603 22.0711 41.1987 39.6408 34.5238 44.1351" stroke="currentColor" stroke-miterlimit="10"/>
<path d="M43.3845 19.1868C42.4873 15.2092 37.4254 11.8807 33.1748 11.0063C41.4278 15.2092 44.1767 22.3033 44.1767 24.2904" stroke="currentColor" stroke-miterlimit="10"/>
<path d="M38.9386 10.4981C37.8919 9.54426 34.179 10.4782 33.1768 11.0015C36.6224 11.0015 39.9249 11.4321 41.4839 14.32" stroke="currentColor" stroke-miterlimit="10"/>
<path d="M33.6794 5.83557C33.8958 6.71323 33.8735 9.77675 33.1768 11.0022L36.4156 7.88565" stroke="currentColor" stroke-miterlimit="10"/>
<path d="M24.1553 2.60999C27.655 3.20944 32.6405 6.99827 33.1782 11.0024C33.4614 8.00178 31.5843 4.66337 29.7867 3.88838" stroke="currentColor" stroke-miterlimit="10"/>
<path d="M10.3262 6.28016C13.81 3.8724 26.5999 2.96825 33.1762 11.0063C30.6183 6.33316 24.6623 2.53439 17.8824 3.00799" stroke="currentColor" stroke-miterlimit="10"/>
<path d="M0.5 25.8526C0.789523 12.4327 19.4845 5.28232 33.178 11.002C22.0202 2.96729 6.61817 6.45805 2.1067 16.6919" stroke="currentColor" stroke-miterlimit="10"/>
<path d="M4.67097 38.6307C1.08533 28.132 21.7528 11.7579 33.1779 11.0027C14.1807 8.97916 -1.03678 23.5913 2.10662 33.8417" stroke="currentColor" stroke-miterlimit="10"/>
<path d="M7.40457 41.8568C5.23473 36.008 26.9681 14.1626 33.1753 11.0063" stroke="currentColor" stroke-miterlimit="10"/>
</svg>
